<svg version="1.1" id="Слой_1" xmlns="http://www.w3.org/2000/svg" x="0" y="0" viewBox="0 0 259.15 147.77" xml:space="preserve"><style>.st0{fill:#b9b9b9}.st1{fill:#fff}.st6{fill:#3bbdee}.st7{stroke-width:.5;fill:none;stroke:#010202;stroke-miterlimit:10}.st10{fill:#294453}.st11{fill:#5067ae}</style><path class="st0" d="M30.45 0H228.7c3.01 0 5.45 2.53 5.45 5.65v134.48c0 3.12-2.44 5.65-5.45 5.65H30.45c-3.01 0-5.45-2.53-5.45-5.65V5.65C25 2.53 27.44 0 30.45 0z"/><path class="st1" d="M29.96 7.81h199.29v125.14H29.96V7.81z"/><path class="st0" d="M259.15 139.53v4.38H0v-4.25c0-.07.06-.13.13-.13h259.02z"/><path d="M0 143.92h259.15l-10.34 2.7c-2.45.64-6.48 1.15-9.01 1.15l-222.12-.56c-2.3-.01-5.98-.45-8.22-.99L0 143.92z" fill="#464545"/><path d="M72.97 7.81h113.15v125.14H72.97V7.81z" fill="#e9ebeb"/><path fill="#a9a9aa" d="M25 135.74h209.15v3.8H25z"/><path d="M92.34 20.89h31.77m-31.77 3.55h23.15M88.86 11.73h12.44M92.34 28.5h18.93" fill="none" stroke="#e9ebeb" stroke-miterlimit="10"/><path class="st1" d="M75.21 36.11h33.18v23.94H75.21V36.11zm37.78 0h33.18v23.94h-33.18V36.11zm37.78 0h33.18v23.94h-33.18V36.11zM74.97 64.4h33.18v23.94H74.97V64.4zm37.78 0h33.18v23.94h-33.18V64.4zm37.78 0h33.18v23.94h-33.18V64.4zM74.97 92.7h33.18v23.94H74.97V92.7zm37.78 0h33.18v23.94h-33.18V92.7zm37.78 0h33.18v23.94h-33.18V92.7zm-75.56 28.35h33.18v11.9H74.97v-11.9zm37.78 0h33.18v11.9h-33.18v-11.9zm37.78 0h33.18v11.9h-33.18v-11.9z"/><path class="st6" d="M75.88 36.88h31.89v10.87H75.88V36.88z"/><path class="st7" d="M75.88 50.23h21.45m-21.45 3.53h23.16M75.88 57.3h17.39"/><path fill="none" stroke="#010202" stroke-width="3" stroke-miterlimit="10" d="M113.69 17.58h31.77"/><path d="M105.83 22.62h47.49m-42.46 3.2h37.44" fill="none" stroke="#010202" stroke-miterlimit="10"/><path class="st10" d="M113.66 36.88h31.89v10.87h-31.89V36.88z"/><path class="st11" d="M151.41 36.88h31.89v10.87h-31.89V36.88zM75.63 65.12h31.89v10.87H75.63V65.12z"/><path class="st6" d="M113.41 65.12h31.89v10.87h-31.89V65.12z"/><path d="M151.16 65.12h31.89v10.87h-31.89V65.12zM75.63 93.37h31.89v10.87H75.63V93.37z" fill="#ea5538"/><path class="st11" d="M113.41 93.37h31.89v10.87h-31.89V93.37z"/><path class="st10" d="M151.16 93.37h31.89v10.87h-31.89V93.37z"/><path class="st6" d="M75.87 121.95h31.89v10.87H75.87v-10.87z"/><path class="st10" d="M113.65 121.95h31.89v10.87h-31.89v-10.87z"/><path class="st11" d="M151.4 121.95h31.89v10.87H151.4v-10.87z"/><path class="st7" d="M114.02 50.23h21.44m-21.44 3.53h23.15m-23.15 3.54h17.39M75.88 78.44h21.45m-21.45 3.54h23.16m-23.16 3.54h17.39m20.4-7.08h21.45m-21.45 3.54h23.16m-23.16 3.54h17.39m20.35-35.29h21.45m-21.45 3.53h23.16m-23.16 3.54h17.39m-17.39 21.14h21.45m-21.45 3.54h23.16m-23.16 3.54h17.39m-17.39 21.23h21.45m-21.45 3.54h23.16m-23.16 3.54h17.39m-54.78-7.08h21.44m-21.44 3.54h23.15m-23.15 3.54h17.39m-55.53-7.08h21.45m-21.45 3.54h23.16m-23.16 3.54h17.39"/></svg>