<svg version="1.1" id="Слой_1" xmlns="http://www.w3.org/2000/svg" x="0" y="0" viewBox="0 0 300 340" xml:space="preserve"><style>.st0{fill:#b8b8b8}.st4{fill:#fff;stroke:#ddd;stroke-width:.1;stroke-miterlimit:10}</style><path class="st0" d="M51.14 96.44h198.25c3.01 0 5.45 2.53 5.45 5.65v134.48c0 3.12-2.44 5.65-5.45 5.65H51.14c-3.01 0-5.45-2.53-5.45-5.65V102.09c.01-3.12 2.45-5.65 5.45-5.65z"/><path d="M52.77 113.94h199.29v125.14H52.77V113.94z" fill="#fff"/><path class="st0" d="M279.85 235.97v4.38H20.69v-4.25c0-.07.06-.13.13-.13h259.03z"/><path d="M20.69 240.35h259.15l-10.34 2.7c-2.45.64-6.48 1.15-9.01 1.15l-222.12-.56c-2.3-.01-5.98-.45-8.22-.99l-9.46-2.3z" fill="#464545"/><path fill="#a8a8a8" d="M45.7 232.18h209.15v3.8H45.7z"/><path class="st4" d="M96.12 191.87h-7.6c-.77 0-1.39-.62-1.39-1.39v-40.96c0-.77.62-1.39 1.39-1.39h7.6c.77 0 1.39.62 1.39 1.39v40.96c0 .77-.62 1.39-1.39 1.39z"/><path fill="#6babde" d="M87.61 151.44h9.42v3.75h-9.42z"/><path fill="#5297d2" d="M87.61 158.12h9.42v3.75h-9.42z"/><path fill="#408ac9" d="M87.61 164.79h9.42v3.75h-9.42z"/><path fill="#2d76bc" d="M87.61 171.46h9.42v3.75h-9.42z"/><path fill="#126bb2" d="M87.61 178.13h9.42v3.75h-9.42z"/><path fill="#0d548c" d="M87.61 184.81h9.42v3.75h-9.42z"/><path class="st4" d="M115.35 191.87h-7.6c-.77 0-1.39-.62-1.39-1.39v-40.96c0-.77.62-1.39 1.39-1.39h7.6c.77 0 1.39.62 1.39 1.39v40.96c0 .77-.62 1.39-1.39 1.39z"/><path fill="#90d0d8" d="M106.84 151.44h9.42v3.75h-9.42z"/><path fill="#72c6ce" d="M106.84 158.12h9.42v3.75h-9.42z"/><path fill="#5ec0c7" d="M106.84 164.79h9.42v3.75h-9.42z"/><path fill="#56bdba" d="M106.84 171.46h9.42v3.75h-9.42z"/><path fill="#4cbbb8" d="M106.84 178.13h9.42v3.75h-9.42z"/><path fill="#3fa9a4" d="M106.84 184.81h9.42v3.75h-9.42z"/><path class="st4" d="M134.57 191.87h-7.6c-.77 0-1.39-.62-1.39-1.39v-40.96c0-.77.62-1.39 1.39-1.39h7.6c.77 0 1.39.62 1.39 1.39v40.96c.01.77-.62 1.39-1.39 1.39z"/><path fill="#acce6d" d="M126.06 151.44h9.42v3.75h-9.42z"/><path fill="#90c031" d="M126.06 158.12h9.42v3.75h-9.42z"/><path fill="#83bb26" d="M126.06 164.79h9.42v3.75h-9.42z"/><path fill="#6cb52d" d="M126.06 171.46h9.42v3.75h-9.42z"/><path fill="#4fae32" d="M126.06 178.13h9.42v3.75h-9.42z"/><path fill="#439935" d="M126.06 184.81h9.42v3.75h-9.42z"/><path class="st4" d="M153.8 191.87h-7.6c-.77 0-1.39-.62-1.39-1.39v-40.96c0-.77.62-1.39 1.39-1.39h7.6c.77 0 1.39.62 1.39 1.39v40.96c0 .77-.62 1.39-1.39 1.39z"/><path fill="#fef3a2" d="M145.29 151.44h9.42v3.75h-9.42z"/><path fill="#f9ef82" d="M145.29 158.12h9.42v3.75h-9.42z"/><path fill="#f7ea44" d="M145.29 164.79h9.42v3.75h-9.42z"/><path fill="#f4e726" d="M145.29 171.46h9.42v3.75h-9.42z"/><path fill="#efe52c" d="M145.29 178.13h9.42v3.75h-9.42z"/><path fill="#feeb15" d="M145.29 184.81h9.42v3.75h-9.42z"/><path class="st4" d="M173.02 191.87h-7.6c-.77 0-1.39-.62-1.39-1.39v-40.96c0-.77.62-1.39 1.39-1.39h7.6c.77 0 1.39.62 1.39 1.39v40.96c.01.77-.62 1.39-1.39 1.39z"/><path fill="#f5dd84" d="M164.51 151.44h9.42v3.75h-9.42z"/><path fill="#fdc962" d="M164.51 158.12h9.42v3.75h-9.42z"/><path fill="#f9c85f" d="M164.51 164.79h9.42v3.75h-9.42z"/><path fill="#f7a819" d="M164.51 171.46h9.42v3.75h-9.42z"/><path fill="#eaa520" d="M164.51 178.13h9.42v3.75h-9.42z"/><path fill="#f09c15" d="M164.51 184.81h9.42v3.75h-9.42z"/><path class="st4" d="M192.25 191.87h-7.6c-.77 0-1.39-.62-1.39-1.39v-40.96c0-.77.62-1.39 1.39-1.39h7.6c.77 0 1.39.62 1.39 1.39v40.96c0 .77-.62 1.39-1.39 1.39z"/><path fill="#f3924b" d="M183.74 151.44h9.42v3.75h-9.42z"/><path fill="#f39146" d="M183.74 158.12h9.42v3.75h-9.42z"/><path fill="#f07f35" d="M183.74 164.79h9.42v3.75h-9.42z"/><path fill="#ed6922" d="M183.74 171.46h9.42v3.75h-9.42z"/><path fill="#ed6d1b" d="M183.74 178.13h9.42v3.75h-9.42z"/><path fill="#ea570c" d="M183.74 184.81h9.42v3.75h-9.42z"/><path class="st4" d="M211.47 191.87h-7.6c-.77 0-1.39-.62-1.39-1.39v-40.96c0-.77.62-1.39 1.39-1.39h7.6c.77 0 1.39.62 1.39 1.39v40.96c.01.77-.62 1.39-1.39 1.39z"/><path fill="#fbdce2" d="M202.97 151.44h9.42v3.75h-9.42z"/><path fill="#f5b0b6" d="M202.97 158.12h9.42v3.75h-9.42z"/><path fill="#f18d95" d="M202.97 164.79h9.42v3.75h-9.42z"/><path fill="#e6443f" d="M202.97 171.46h9.42v3.75h-9.42z"/><path fill="#e6312f" d="M202.97 178.13h9.42v3.75h-9.42z"/><path fill="#e41c1a" d="M202.97 184.81h9.42v3.75h-9.42z"/></svg>