<svg version="1.1" id="Слой_1" xmlns="http://www.w3.org/2000/svg" x="0" y="0" viewBox="0 0 259.16 147.54" xml:space="preserve"><style>.st0{fill:#b8b8b8}.st1{fill:#fff}.st7{fill:#e0584b}.st10{fill:none;stroke:#fff;stroke-miterlimit:10;stroke-width:.75}</style><path class="st0" d="M30.45 0H228.7c3.01 0 5.45 2.53 5.45 5.65v134.48c0 3.12-2.44 5.65-5.45 5.65H30.45c-3.01 0-5.45-2.53-5.45-5.65V5.65C25.01 2.53 27.45 0 30.45 0z"/><path class="st1" d="M29.96 7.81h199.29v125.14H29.96V7.81z"/><path class="st0" d="M259.16 139.53v4.38H0v-4.25c0-.07.06-.13.13-.13h259.03z"/><path d="M0 143.91h259.15l-10.34 2.7c-2.45.64-6.48 1.15-9.01 1.15l-222.12-.56c-2.3-.01-5.98-.45-8.22-.99L0 143.91z" fill="#454545"/><path d="M29.96 20.12h199.29v100.52H29.96V20.12z" fill="#15152a"/><path d="M155.46 42.1h57.24v53.08h-57.24V42.1z" fill="#ecf1ed"/><path d="M158.54 83.22h51.1v3.93h-51.1v-3.93z" fill="#e95539"/><path fill="#a8a8a8" d="M25.01 135.74h209.15v3.8H25.01z"/><path class="st7" d="M46.51 87.02h23.75v7.73H46.51z"/><path fill="none" stroke="#fff" stroke-width="2" stroke-miterlimit="10" d="M46.51 42.1h31.78"/><path d="M46.51 50.03h47.5m-47.5-3.36h37.44" fill="none" stroke="#fff" stroke-miterlimit="10"/><path class="st7" d="M93.89 87.02h23.75v7.73H93.89z"/><path class="st10" d="M46.51 59.67h71.13m-71.13 3.12h62.68M46.51 65.9h56.84m-56.84 3.12h65.84m-65.84 3.12h71.13m-71.13 3.12h54.82"/><circle class="st7" cx="49.62" cy="26.25" r="3"/><path class="st10" d="M58.38 26.25H68.5m3.68 0h10.11m3.68 0h10.11m3.68 0h10.11m3.68 0h10.11"/><path class="st1" d="M194.83 23.25h6.08v6h-6.08zm11.83 0h6v6h-6z"/></svg>