<svg version="1.1" id="Слой_1" xmlns="http://www.w3.org/2000/svg" x="0" y="0" viewBox="0 0 259.15 147.49" xml:space="preserve"><style>.st0{fill:#b9b9b9}.st1{fill:#fff}.st4{fill:#284352}.st6{fill:#fe5430}.st10,.st8{fill:none;stroke-miterlimit:10}.st8{stroke:#e1574b;stroke-width:.5}.st10{stroke:#e8eaeb}</style><path class="st0" d="M30.45 0H228.7c3.01 0 5.45 2.53 5.45 5.65v134.48c0 3.12-2.44 5.65-5.45 5.65H30.45c-3.01 0-5.45-2.53-5.45-5.65V5.65C25 2.53 27.44 0 30.45 0z"/><path class="st1" d="M29.96 7.81h199.29v125.14H29.96V7.81z"/><path class="st0" d="M259.15 139.53v4.38H0v-4.25c0-.07.06-.13.13-.13h259.02z"/><path d="M0 143.92h259.15l-10.34 2.7c-2.45.64-6.48 1.15-9.01 1.15l-222.12-.56c-2.3-.01-5.98-.45-8.22-.99L0 143.92z" fill="#454545"/><path d="M72.97 7.81h113.15v125.2H72.97V7.81z" fill="#e8eaeb"/><path class="st4" d="M73.03 7.81h113.15v50.07H73.03V7.81z"/><path d="M136.16 7.81h32.5V45.5h-32.5V7.81z" fill="#edf2ee"/><path class="st6" d="M136.16 7.81h32.5v7.84h-32.5V7.81zm1.74 30.9h29.01v2.23H137.9v-2.23z"/><path class="st1" d="M88.86 59.65h81.43v38.26H88.86V59.65z"/><path class="st6" d="M145.02 66.75h21.33v23.94h-21.33V66.75zM88.86 99.68h81.43v33.34H88.86V99.68z"/><path class="st4" d="M108.15 110.87h42.86v19.78h-42.86v-19.78z"/><path fill="#aaa" d="M25 135.74h209.15v3.8H25z"/><circle class="st6" cx="95.5" cy="79.35" r="1.65"/><circle class="st6" cx="95.5" cy="83.42" r="1.65"/><circle class="st6" cx="95.5" cy="87.48" r="1.65"/><circle class="st6" cx="95.5" cy="91.55" r="1.65"/><path class="st8" d="M88.86 17.68V28.5"/><path fill="#e1574b" d="M88.86 37.8h17.58v4.39H88.86z"/><path class="st10" d="M92.34 20.89h31.77m-31.77 3.55h23.15M88.86 11.73h12.44M92.34 28.5h18.93"/><path class="st8" d="M93.64 61.34v10.81"/><path d="M97.12 64.55h31.77M97.12 68.1h23.15" stroke="#000" fill="none" stroke-miterlimit="10"/><path d="M98.44 78.71h21.45m-21.45 4.26h23.16m-23.16 4.25h17.39m-17.39 4.26h26.69" stroke-width=".75" stroke="#000" fill="none" stroke-miterlimit="10"/><path class="st10" d="M113.69 103.96h31.77"/><path d="M105.83 107.18h47.49m-42.46 1.35h37.44" stroke="#e8eaeb" stroke-width=".5" fill="none" stroke-miterlimit="10"/></svg>