<svg version="1.1" id="Слой_1" xmlns="http://www.w3.org/2000/svg" x="0" y="0" viewBox="0 0 259.15 147.76" xml:space="preserve"><style>.st0{fill:#b9b9b9}</style><path class="st0" d="M30.45 0H228.7c3.01 0 5.45 2.53 5.45 5.65v134.48c0 3.12-2.44 5.65-5.45 5.65H30.45c-3.01 0-5.45-2.53-5.45-5.65V5.65C25.01 2.53 27.45 0 30.45 0z"/><path d="M30.47 7.77h199.29v125.14H30.47V7.77z" fill="#fff"/><path class="st0" d="M259.16 139.53v4.38H0v-4.25c0-.07.06-.13.13-.13h259.03z"/><path d="M0 143.91h259.15l-10.34 2.7c-2.45.64-6.48 1.15-9.01 1.15l-222.12-.56c-2.3-.01-5.98-.45-8.22-.99L0 143.91z" fill="#464545"/><path fill="#a9a9aa" d="M25.01 135.74h209.15v3.8H25.01z"/><path fill="none" d="M107.51 83.14h44.14v17h-44.14z"/><path d="M123.72 55.15c.19-.65.29-1.32.29-1.97 0-1.01-.24-1.99-.7-2.88a5.603 5.603 0 00-1.99-2.16c-.07-.05-.17-.07-.26-.12-.43-.22-.91-.34-1.46-.34-1.01 0-2.21.41-3.72 1.46-3.98 2.83-7.18 9.86-7.18 15.84v.19c.1 6.5 2.86 9.58 4.46 10.85 1.42 1.08 2.71 1.61 3.98 1.61s2.52-.55 3.74-1.68c1.34-1.44 2.33-3.29 2.78-5.14.05-.12.14-.22.26-.22.05 0 .07.02.1.02.12.02.22.17.22.29v.05c-.46 1.82-1.42 3.67-2.71 5.14a.42.42 0 01-.07.12c-.07.07-.14.14-.22.19-1.58 1.66-3.62 2.78-5.93 2.78-.19 0-.38 0-.55-.02-2.26-.17-4.39-1.3-6-3.19-2.11-2.5-3.24-6.05-3.24-10.18 0-.62.02-1.27.07-1.94.94-11.23 7.92-17.21 12.51-17.21h.19c1.25.07 2.38.41 3.34.98.62.38 1.13.89 1.56 1.37.02.02.05.07.05.12.22.26.43.58.6.89.5.98.77 2.04.77 3.14 0 1.39-.43 2.86-1.25 4.18-.31.5-.7.79-1.08.79h-.1c-.24 0-.43-.17-.53-.38a.643.643 0 01-.07-.31c0-.24.12-.53.31-.77.29-.34.62-.46.91-.55.38-.12.65-.22.84-.86.04-.02.06-.07.08-.09zm25.71 19.53c.14.02.24.14.24.29v.05c-.38 2.86-2.26 4.3-3.91 4.46h-.34c-1.44 0-2.62-.89-3.14-2.4-.7-2.02-.86-5.23-.86-8.81 0-1.82.05-3.72.1-5.62.05-1.75.07-3.58.07-5.3 0-5.45-.38-10.18-2.42-10.3h-.07c-1.1 0-2.23.5-3.26 1.56-3.12 3.1-5.28 10.32-6.22 15.96-.31 3.84-.46 7.27-.46 9.79 0 2.02.1 3.46.22 4.1 0 .05.02.1.02.14 0 .34-.24.6-.67.7-.12.02-.24.05-.38.05-.53 0-1.1-.22-1.22-.67-.34-1.37-.48-3.84-.48-6.82 0-9.07 1.32-22.75 2.45-24.03.77-.89 1.7-1.3 2.47-1.3.24 0 .46.05.65.12.12.05.19.17.19.31v.05c-.98 3.91-1.71 8.06-2.19 12.03 1.13-4.25 2.83-8.52 5.19-10.85 1.18-1.18 2.42-1.75 3.72-1.75h.1c4.94.17 5.45 8.35 5.45 16.63 0 1.1-.02 2.18-.02 3.26 0 .94-.02 1.87-.02 2.78 0 4.63.19 8.54 1.44 9.22.12.07.24.1.38.1.31 0 .65-.14 1.08-.43.02-.02.07-.02.1-.02.72-.67 1.3-1.66 1.49-3.05.02-.14.17-.26.29-.26h.01zm-37.78 14.17c-.14.06-.27.12-.39.18s-.27.11-.46.17c-.16.05-.33.09-.52.13s-.39.05-.62.05c-.42 0-.81-.06-1.15-.18s-.65-.3-.9-.56c-.25-.25-.45-.56-.59-.94s-.21-.83-.21-1.33c0-.48.07-.91.2-1.29a2.47 2.47 0 011.49-1.54c.35-.13.74-.2 1.17-.2.31 0 .62.04.94.11s.66.21 1.04.4v.92h-.06c-.32-.27-.64-.46-.95-.59s-.65-.18-1.01-.18c-.29 0-.56.05-.79.14s-.45.24-.63.44-.32.44-.42.74-.15.64-.15 1.03c0 .41.06.76.17 1.05s.25.53.43.72c.18.19.4.33.64.43s.5.14.77.14c.37 0 .72-.06 1.05-.19s.63-.32.91-.57h.05v.92zm6.03-4.72c.24.26.42.58.54.96s.19.81.19 1.29-.06.91-.19 1.29-.31.69-.54.95c-.24.26-.52.46-.85.59s-.7.2-1.12.2c-.41 0-.78-.07-1.12-.2s-.62-.33-.85-.59-.41-.57-.54-.95-.19-.8-.19-1.29c0-.47.06-.9.19-1.28s.31-.7.55-.97c.23-.25.51-.45.85-.59s.71-.2 1.11-.2c.42 0 .79.07 1.12.21s.62.32.85.58zm-.07 2.24c0-.75-.17-1.34-.51-1.75s-.8-.62-1.39-.62c-.59 0-1.06.21-1.39.62s-.51.99-.51 1.75.17 1.35.52 1.75.8.61 1.38.61 1.04-.2 1.38-.61.52-.99.52-1.75zm7.81 2.91h-.77v-5.01l-1.62 3.41h-.46l-1.61-3.41v5.01h-.72v-5.82h1.05l1.55 3.24 1.5-3.24h1.07v5.82zm5.97-4.06c0 .26-.04.5-.13.72s-.21.41-.38.57c-.2.2-.44.35-.71.45s-.62.15-1.04.15h-.77v2.17h-.77v-5.82h1.58c.35 0 .64.03.89.09s.46.15.64.28c.22.15.39.33.51.55s.18.5.18.84zm-.81.02c0-.2-.04-.38-.11-.52s-.18-.27-.32-.36c-.13-.08-.27-.14-.43-.17s-.36-.05-.61-.05h-.77v2.32h.65c.31 0 .57-.03.76-.08s.35-.15.48-.27c.12-.13.21-.26.26-.39s.09-.31.09-.48zm6.82 4.04h-.82l-.57-1.62h-2.52l-.57 1.62h-.79l2.12-5.82h1.03l2.12 5.82zm-1.63-2.29l-1.02-2.86-1.02 2.86h2.04zm7.55 2.29h-.96l-2.76-5.2v5.2h-.72v-5.82h1.2l2.52 4.75v-4.75h.72v5.82zm6.26-5.82l-2.05 3.27v2.55h-.77v-2.47l-2.05-3.35h.86l1.59 2.6 1.61-2.6h.81zm-28.79 15.42h-.96l-2.76-5.2v5.2h-.72v-5.82h1.2l2.52 4.75v-4.75h.72v5.82zm6.73 0h-.82l-.57-1.62h-2.52l-.57 1.62h-.79l2.12-5.82h1.03l2.12 5.82zm-1.63-2.29l-1.02-2.86-1.02 2.86h2.04zm8.29 2.29h-.77v-5.01l-1.62 3.41h-.46l-1.61-3.41v5.01H129v-5.82h1.05l1.55 3.24 1.5-3.24h1.07v5.82zm6 0h-3.83v-5.82h3.83v.69h-3.06v1.59h3.06v.69h-3.06v2.16h3.06v.69z"/></svg>