<svg version="1.1" id="Слой_1" xmlns="http://www.w3.org/2000/svg" x="0" y="0" viewBox="0 0 259.15 147.53" xml:space="preserve"><style>.st0{fill:#b9b9b9}.st3{fill:#e9ebeb}</style><path class="st0" d="M30.45 0H228.7c3.01 0 5.45 2.53 5.45 5.65v134.48c0 3.12-2.44 5.65-5.45 5.65H30.45c-3.01 0-5.45-2.53-5.45-5.65V5.65C25.01 2.53 27.45 0 30.45 0z"/><path d="M30.47 7.77h199.29v125.14H30.47V7.77z" fill="#fff"/><path class="st0" d="M259.16 139.53v4.38H0v-4.25c0-.07.06-.13.13-.13h259.03z"/><path d="M0 143.91h259.15l-10.34 2.7c-2.45.64-6.48 1.15-9.01 1.15l-222.12-.56c-2.3-.01-5.98-.45-8.22-.99L0 143.91z" fill="#464545"/><path class="st3" d="M29.96 23.52h199.29v93.64H29.96V23.52z"/><path fill="#a9a9aa" d="M25.01 135.74h209.15v3.8H25.01z"/><path fill="none" stroke="#e1584c" stroke-width=".746" stroke-miterlimit="10" d="M116.09 65.29v10.82"/><path d="M120.81 68.51h70.67m-70.67 3.55h51.49" stroke="#020203" stroke-width=".75" fill="none" stroke-miterlimit="10"/><path fill="none" stroke="#010202" stroke-width="2" stroke-miterlimit="10" d="M136.88 43.1h58.79"/><path d="M122.35 49.04h87.86m-78.56 2.52h69.25" stroke="#010202" fill="none" stroke-miterlimit="10"/><path d="M49 100.12h47.63v5.58H49v-5.58z" fill="#ea5639"/><path d="M95.03 95.46H50.61c-.89 0-1.61-.72-1.61-1.61V43.61c0-.89.72-1.61 1.61-1.61h44.42c.89 0 1.61.72 1.61 1.61v50.25c-.01.88-.73 1.6-1.61 1.6z" fill="#294453"/><path class="st3" d="M72.82 69.39c-4.58 0-8.3-3.72-8.3-8.3s3.72-8.3 8.3-8.3c4.57 0 8.3 3.72 8.3 8.3s-3.73 8.3-8.3 8.3zm0-15.23c-3.82 0-6.93 3.11-6.93 6.93s3.11 6.93 6.93 6.93 6.93-3.11 6.93-6.93-3.11-6.93-6.93-6.93z"/><path d="M85.7 84.67v-5.34c0-3.37-2.73-6.1-6.1-6.1H66.03c-3.37 0-6.1 2.73-6.1 6.1v5.34H85.7z" fill="none" stroke="#e9ebeb" stroke-width="1.825" stroke-miterlimit="10"/><path d="M29.96 23.77h199.29v8.45H29.96zm86.13 62h94.12v19.97h-94.12z" fill="#3bbdee"/></svg>