<svg xmlns="http://www.w3.org/2000/svg" xmlns:vectornator="http://vectornator.io" viewBox="0 0 500 279" clip-rule="evenodd" stroke-linecap="round" stroke-linejoin="round"><g id="Слой 1" vectornator:layerName="Слой 1"><path d="M13.889 251.382H486.11c7.671 0 13.889 6.218 13.889 13.889 0 7.671-6.218 13.889-13.889 13.889H13.889C6.219 279.16 0 272.942 0 265.271c0-7.671 6.218-13.889 13.889-13.889z" fill="#cbcbcb"/><path d="M59.408-.16h381.184c10.452 0 18.924 7.981 18.924 17.826v229.779c0 9.845-8.472 17.826-18.924 17.826H59.408c-10.452 0-18.924-7.981-18.924-17.826V17.665c0-9.844 8.472-17.825 18.924-17.825z" fill="#cbcbcb"/><path d="M78.547 21.911h342.906c11.877 0 21.505 10.452 21.505 23.346v169.375c0 12.894-9.628 23.346-21.505 23.346H78.548c-11.878 0-21.506-10.452-21.506-23.346V45.257c0-12.894 9.628-23.346 21.505-23.346z" fill="#333"/><path stroke="#54d6a5" stroke-width="2" d="M106.403 48.188h208.105" fill="none"/><path stroke="#5f6cb4" stroke-width="2" d="M106.403 61.745h193.399" fill="none"/><path stroke="#85b2cf" stroke-width="2" d="M128.598 75.301h81.857" fill="none"/><path stroke="#7e2555" stroke-width="2" d="M128.598 88.857h129.875" fill="none"/><path stroke="#7f7cbd" stroke-width="2" d="M145.947 102.414h208.106" fill="none"/><path stroke="#12bd12" stroke-width="2" d="M154.42 115.97h177.997" fill="none"/><path stroke="#54d6a5" stroke-width="2" d="M171.563 129.527h193.128" fill="none"/><path stroke="#7078b6" stroke-width="2" d="M171.563 143.083h86.91" fill="none"/><path stroke="#f0ef07" stroke-width="2" d="M171.563 156.639h142.945" fill="none"/><path stroke="#54d6a5" stroke-width="2" d="M185.556 170.196h179.135" fill="none"/><path stroke="#525d8d" stroke-width="2" d="M185.556 183.752h208.106" fill="none"/><path stroke="#11c110" stroke-width="2" d="M195.749 197.309h136.668" fill="none"/><path stroke="#7f2555" stroke-width="2" d="M210.455 210.865h169.633" fill="none"/><path stroke="#88b7d5" stroke-width="2" d="M210.455 224.421h97.386" fill="none"/><path stroke="#525557" stroke-width=".3" d="M106.403 61.745v176.233m22.195-149.121v149.121m17.349-135.564v135.564m8.473-122.008v122.008m17.143-81.339v81.339m13.993-54.226v54.226m10.193-40.669v40.669m14.706-13.557v13.557" fill="none"/></g></svg>