<svg xmlns="http://www.w3.org/2000/svg" xmlns:vectornator="http://vectornator.io" viewBox="0 0 63 46" clip-rule="evenodd" stroke-linecap="round" stroke-linejoin="round"><g stroke="#fff" stroke-width="2" fill="none" id="Слой 1" vectornator:layerName="Слой 1"><path d="M6.58 1.006h49.84a5.328 5.328 0 015.328 5.328v33.333a5.328 5.328 0 01-5.329 5.329H6.581a5.328 5.328 0 01-5.329-5.329V6.334a5.328 5.328 0 015.329-5.328z"/><path d="M38.764 20.46l-7.234 5.768-7.324-5.739L5.465 42.937C4.52 44.07 4.946 45 6.42 45h50.16c1.474 0 1.901-.93.956-2.063L38.764 20.46z"/><path d="M31.522 26.235L2.425 3.34s1.2-2.29 3.72-2.31L55.208 1c1.912 0 3.91.386 5.368 2.002L31.522 26.235z"/></g></svg>