<svg xmlns="http://www.w3.org/2000/svg" xmlns:vectornator="http://vectornator.io" viewBox="0 0 50 50" clip-rule="evenodd" stroke-linecap="round" stroke-linejoin="round"><g id="Слой 1" vectornator:layerName="Слой 1"><path stroke="#fff" stroke-width="2" d="M11.92 1.025h26.16c6.017 0 10.895 4.878 10.895 10.895v26.16c0 6.017-4.878 10.895-10.895 10.895H11.92c-6.017 0-10.895-4.878-10.895-10.895V11.92c0-6.017 4.878-10.895 10.895-10.895z" fill="none"/><path stroke="#fff" stroke-width="2" d="M13.763 25c0-6.206 5.03-11.237 11.237-11.237 6.206 0 11.237 5.03 11.237 11.237 0 6.206-5.03 11.237-11.237 11.237-6.206 0-11.237-5.03-11.237-11.237z" fill="none"/><path d="M36.919 9.314a3.502 3.502 0 117.003 0 3.502 3.502 0 01-7.003 0z" fill="#fff"/></g></svg>